<?xml version="1.0" encoding="utf-8"?>
<!-- Generator: Adobe Illustrator 23.0.3, SVG Export Plug-In . SVG Version: 6.00 Build 0)  -->
<svg version="1.1" xmlns="http://www.w3.org/2000/svg" xmlns:xlink="http://www.w3.org/1999/xlink" x="0px" y="0px"
	 viewBox="0 0 644 312" style="enable-background:new 0 0 644 312;" xml:space="preserve">
<style type="text/css">
	.st0{fill:#FFFFFF;}
	.st1{fill:#FFC700;}
</style>
<g id="Camada_2">
</g>
<g id="Camada_1">
	<g>
		<path class="st0" d="M74.5,39.6h7.9v32.2h-7.9V39.6z"/>
		<path class="st0" d="M89.9,39.6h8l8.9,15c1.3,2.1,2.7,5.5,2.7,5.5h0.1c0,0-0.4-3.5-0.4-5.5v-15h7.9v32.2h-7.9l-9-15
			c-1.3-2.1-2.7-5.5-2.7-5.5h-0.1c0,0,0.4,3.5,0.4,5.5v15h-7.9V39.6z"/>
		<path class="st0" d="M130.8,46.4H121v-6.8h27.4v6.8h-9.8v25.4h-7.9V46.4z"/>
		<path class="st0" d="M152.4,39.6h20.2v6.8h-12.3v5.8h9.8V59h-9.8V65h12.9v6.7h-20.8V39.6z"/>
		<path class="st0" d="M178.9,39.6h7.9V65h13.1v6.7h-21V39.6z"/>
		<path class="st0" d="M204.2,39.6H216c6.4,0,10.9,2.9,10.9,8.4c0,2.7-1.3,5.4-3.7,6.8V55c3.7,1.1,5,4.4,5,7.2c0,7-5.9,9.6-12.2,9.6
			h-11.8V39.6z M216.1,52.1c2,0,2.8-1.4,2.8-3c0-1.5-0.9-2.7-3-2.7h-3.9v5.7H216.1z M216.8,65c2.3,0,3.4-1.6,3.4-3.4
			s-1.1-3.3-3.4-3.3h-4.8V65H216.8z"/>
		<path class="st0" d="M233.9,39.6h11.2c3.3,0,4.9,0.2,6.3,0.8c3.6,1.4,5.9,4.7,5.9,9.4c0,3.4-1.6,7.2-4.8,8.8v0.1
			c0,0,0.4,0.6,1.2,1.9l6.3,11.2h-8.8l-5.7-10.8h-3.7v10.8h-7.9V39.6z M245.2,54.2c2.5,0,4.1-1.4,4.1-4c0-2.4-0.9-3.9-4.9-3.9h-2.7
			v7.8H245.2z"/>
		<path class="st0" d="M280.8,65h-10l-1.9,6.7h-8.1l10.9-32.2h8.3l10.9,32.2h-8.1L280.8,65z M275.8,47c0,0-0.7,3.5-1.3,5.5l-1.8,6.3
			h6.3l-1.8-6.3C276.6,50.5,275.8,47,275.8,47L275.8,47z"/>
		<path class="st0" d="M296.2,61.8c0,0,3.6,3.3,7.7,3.3c1.6,0,3.4-0.6,3.4-2.6c0-3.8-14.5-3.7-14.5-13.6c0-5.9,5-9.9,11.4-9.9
			c6.9,0,10.3,3.6,10.3,3.6l-3.3,6.4c0,0-3.2-2.8-7.1-2.8c-1.6,0-3.4,0.7-3.4,2.5c0,4,14.5,3.3,14.5,13.5c0,5.4-4.1,10-11.3,10
			c-7.6,0-11.7-4.6-11.7-4.6L296.2,61.8z"/>
		<path class="st0" d="M330.9,39.6H351v6.8h-12.3v5.8h9.8V59h-9.8V65h12.9v6.7h-20.8V39.6z M341.7,30.8h7.7l-5.3,6.7h-6L341.7,30.8z
			"/>
	</g>
	<g>
		<path class="st0" d="M74.7,193.9h11.4c10.1,0,16.6,5.9,16.6,16s-6.5,16.2-16.6,16.2H74.7V193.9z M85.8,219.3
			c5.4,0,8.8-3.2,8.8-9.4c0-6.1-3.5-9.3-8.8-9.3h-3.2v18.7H85.8z"/>
		<path class="st0" d="M122.8,193.4c9.7,0,16.8,7.2,16.8,16.4c0,9.4-7.1,16.8-16.8,16.8s-16.8-7.4-16.8-16.8
			C106,200.6,113.1,193.4,122.8,193.4z M122.8,219.4c4.8,0,8.7-4.1,8.7-9.6c0-5.3-3.9-9.2-8.7-9.2s-8.7,4-8.7,9.2
			C114.2,215.3,118,219.4,122.8,219.4z"/>
		<path class="st0" d="M155.3,193.9h13.4c6.3,0,10.5,4.6,10.5,11.1c0,6.5-4.2,11.2-10.5,11.2h-5.5v9.9h-7.9V193.9z M167.1,209.4
			c2.7,0,4.1-1.8,4.1-4.4s-1.4-4.3-4-4.3h-4v8.7H167.1z"/>
		<path class="st0" d="M183.9,193.9h7.9v25.4h13.1v6.7h-21V193.9z"/>
		<path class="st0" d="M226.6,219.3h-10l-1.9,6.7h-8.1l10.9-32.2h8.3l10.9,32.2h-8.1L226.6,219.3z M221.6,201.2c0,0-0.7,3.5-1.3,5.5
			l-1.8,6.3h6.3l-1.8-6.3C222.4,204.7,221.7,201.2,221.6,201.2L221.6,201.2z"/>
		<path class="st0" d="M240.3,193.9h8l8.9,15c1.3,2.1,2.7,5.5,2.7,5.5h0.1c0,0-0.4-3.5-0.4-5.5v-15h7.9v32.2h-7.9l-9-15
			c-1.3-2.1-2.7-5.5-2.7-5.5h-0.1c0,0,0.4,3.5,0.4,5.5v15h-7.9V193.9z"/>
		<path class="st0" d="M275,193.9h20.2v6.8h-12.3v5.8h9.8v6.7h-9.8v6.1h12.9v6.7H275V193.9z"/>
		<path class="st0" d="M298.7,213.8h7.9v1.7c0,1.2,0.2,2.1,0.6,2.7c0.5,0.9,1.4,1.2,2.3,1.2c1.7,0,2.8-1.1,2.8-3.4v-15.3h-8.6v-6.8
			h16.5v22.3c0,7.1-5.4,10.4-10.8,10.4c-5.4,0-10.8-3.5-10.8-10.4V213.8z"/>
		<path class="st0" d="M343.3,219.3h-10l-1.9,6.7h-8.1l10.9-32.2h8.3l10.9,32.2h-8.1L343.3,219.3z M338.3,201.2c0,0-0.7,3.5-1.3,5.5
			l-1.8,6.3h6.3l-1.8-6.3C339.1,204.7,338.3,201.2,338.3,201.2L338.3,201.2z"/>
		<path class="st0" d="M358.6,193.9h8.5l4.7,13.6c0.7,2.1,1.6,5.3,1.6,5.3h0.1c0,0,0.9-3.2,1.6-5.3l4.7-13.6h8.5l2.6,32.2h-7.9
			l-1-14.5c-0.2-2.4,0-5.4,0-5.4h-0.1c0,0-1.1,3.4-1.8,5.4l-3.4,9.3h-6.7l-3.4-9.3c-0.7-2-1.8-5.4-1.8-5.4h-0.1c0,0,0.2,3,0,5.4
			l-1,14.5H356L358.6,193.9z"/>
		<path class="st0" d="M397.6,193.9h20.2v6.8h-12.3v5.8h9.8v6.7h-9.8v6.1h12.9v6.7h-20.8V193.9z"/>
		<path class="st0" d="M424.1,193.9h8l8.9,15c1.3,2.1,2.7,5.5,2.7,5.5h0.1c0,0-0.4-3.5-0.4-5.5v-15h7.9v32.2h-7.9l-9-15
			c-1.3-2.1-2.7-5.5-2.7-5.5h-0.1c0,0,0.4,3.5,0.4,5.5v15h-7.9V193.9z"/>
		<path class="st0" d="M465,200.7h-9.8v-6.8h27.4v6.8h-9.8v25.4H465V200.7z"/>
		<path class="st0" d="M501.2,193.4c9.7,0,16.8,7.2,16.8,16.4c0,9.4-7.1,16.8-16.8,16.8s-16.8-7.4-16.8-16.8
			C484.4,200.6,491.5,193.4,501.2,193.4z M501.2,219.4c4.8,0,8.7-4.1,8.7-9.6c0-5.3-3.9-9.2-8.7-9.2s-8.7,4-8.7,9.2
			C492.5,215.3,496.4,219.4,501.2,219.4z"/>
		<path class="st0" d="M90.8,273.3h-10l-1.9,6.7h-8.1l10.9-32.2h8.3l10.9,32.2h-8.1L90.8,273.3z M77.7,239.1h7.7l3.6,6.7h-6
			L77.7,239.1z M85.7,255.2c0,0-0.7,3.5-1.3,5.5l-1.8,6.3h6.3l-1.8-6.3C86.5,258.7,85.8,255.2,85.7,255.2L85.7,255.2z"/>
		<path class="st0" d="M114.7,247.9h20.2v6.8h-12.3v5.8h9.8v6.7h-9.8v6.1h12.9v6.7h-20.8V247.9z"/>
		<path class="st0" d="M147.9,264.1l-9.8-16.2h9l3.5,6.6c1.1,2,2,4.1,2,4.1h0.1c0,0,0.9-2.1,2-4.1l3.6-6.6h9l-9.9,16.2l9.8,16h-8.8
			l-3.7-6.7c-1.1-2-2-4-2-4h-0.1c0,0-0.9,2-2,4l-3.7,6.7h-8.7L147.9,264.1z"/>
		<path class="st0" d="M171.6,247.9h20.2v6.8h-12.3v5.8h9.8v6.7h-9.8v6.1h12.9v6.7h-20.8V247.9z"/>
		<path class="st0" d="M212.7,247.4c8,0,12.1,4.5,12.1,4.5l-3.6,5.9c0,0-3.6-3.3-8.1-3.3c-6.2,0-9.1,4.5-9.1,9.2
			c0,4.8,3.1,9.7,9.1,9.7c4.9,0,8.5-4,8.5-4l4,5.8c0,0-4.5,5.4-13,5.4c-10.1,0-16.9-7.2-16.9-16.7
			C195.8,254.6,203,247.4,212.7,247.4z"/>
		<path class="st0" d="M230,247.9h7.9v20.3c0,3.4,2.2,5.2,5.6,5.2c3.4,0,5.6-1.8,5.6-5.2v-20.3h7.9v20.3c0,7.2-5.3,12.4-13.4,12.4
			c-8.2,0-13.5-5.1-13.5-12.4V247.9z"/>
		<path class="st0" d="M278.8,247.4c8,0,12.1,4.5,12.1,4.5l-3.6,5.9c0,0-3.6-3.3-8.1-3.3c-6.2,0-9.1,4.5-9.1,9.2
			c0,4.8,3.1,9.7,9.1,9.7c4.9,0,8.5-4,8.5-4l4,5.8c0,0-4.2,4.9-11.8,5.4l-0.3,1.1c1.8,0.2,3.4,1.2,3.4,3.6c0,3.2-2.7,4.2-5.3,4.2
			c-1.7,0-3.2-0.4-3.2-0.4v-3.9c0,0,1,0.4,2,0.4c1,0,1.7-0.3,1.7-1c0-0.8-0.9-0.9-1.8-0.9c-0.6,0-1.2,0.1-1.2,0.1l1-3.3
			c-8.7-1.1-14.4-7.8-14.4-16.6C261.9,254.6,269.1,247.4,278.8,247.4z"/>
		<path class="st0" d="M312.6,273.3h-10l-1.9,6.7h-8.1l10.9-32.2h8.3l10.9,32.2h-8.1L312.6,273.3z M304.3,238.9c3,0,4,2.7,5.7,2.7
			c1.1,0,1.7-0.9,1.7-2.6h5c0,4.5-1.8,6.9-5.8,6.9c-3,0-4-2.7-5.7-2.7c-1.1,0-1.7,0.9-1.7,2.6h-5
			C298.6,241.3,300.4,238.9,304.3,238.9z M307.6,255.2c0,0-0.7,3.5-1.3,5.5l-1.8,6.3h6.3l-1.8-6.3
			C308.4,258.7,307.7,255.2,307.6,255.2L307.6,255.2z"/>
		<path class="st0" d="M340.7,247.4c9.7,0,16.8,7.2,16.8,16.4c0,9.4-7.1,16.8-16.8,16.8s-16.8-7.4-16.8-16.8
			C323.9,254.6,331,247.4,340.7,247.4z M340.7,273.4c4.8,0,8.7-4.1,8.7-9.6c0-5.3-3.9-9.2-8.7-9.2s-8.7,4-8.7,9.2
			C332,269.3,335.9,273.4,340.7,273.4z"/>
		<path class="st0" d="M361.3,272.7h7.4v7.4h-7.4V272.7z"/>
	</g>
	<g>
		<g>
			<path class="st1" d="M427.4,120.2c-6.9,0-12.4,5.7-12.4,13.2c0,7.9,5.5,13.8,12.4,13.8s12.4-5.9,12.4-13.8
				C439.8,125.8,434.3,120.2,427.4,120.2z"/>
			<path class="st1" d="M327.7,121.1h-0.1c0,0-1,5-1.9,7.9l-2.6,9h9.1l-2.6-9C328.7,126.1,327.7,121.1,327.7,121.1z"/>
			<path class="st1" d="M32,89v85h584V89H32z M100.6,156.7H70.8v-46.1h28.9v9.7H82.1v8.4h14v9.7h-14v8.7h18.5V156.7z M147.6,156.7
				h-11.3l-12.8-21.4c-1.8-3-3.9-7.9-3.9-7.9h-0.1c0,0,0.5,5,0.5,7.9v21.4h-11.3v-46.1h11.4l12.8,21.5c1.8,3,3.9,7.9,3.9,7.9h0.1
				c0,0-0.5-5-0.5-7.9v-21.5h11.3V156.7z M188.1,156.7h-29.8v-46.1h28.9v9.7h-17.6v8.4h14v9.7h-14v8.7h18.5V156.7z M221,156.7
				l-8.2-15.5h-5.3v15.5h-11.3v-46.1h16c4.7,0,7,0.3,9,1.1c5.2,2,8.5,6.7,8.5,13.4c0,4.9-2.3,10.2-6.9,12.6v0.1c0,0,0.6,0.8,1.7,2.8
				l9,16.1H221z M281.1,156.7h-9.4v-1.3c0-1,0.1-1.9,0.1-1.9h-0.1c0,0-4.4,4-12.1,4c-11.8,0-22.6-8.8-22.6-23.9
				c0-13.4,10.1-23.7,24.2-23.7c11.8,0,17.7,6.1,17.7,6.1l-5.4,8.4c0,0-4.7-4.3-11.2-4.3c-9.7,0-13.6,6.2-13.6,13
				c0,8.8,6.1,14,13.2,14c5.4,0,9.3-3.3,9.3-3.3v-3.5h-6.5v-9.6h16.5V156.7z M300.9,156.7h-11.3v-46.1h11.3V156.7z M337.6,156.7
				l-2.8-9.7h-14.4l-2.8,9.7h-11.6l15.7-46.1h11.9l15.7,46.1H337.6z M382.5,157.4c-10.8,0-16.8-6.6-16.8-6.6l5.9-8.6
				c0,0,5.2,4.8,11,4.8c2.3,0,4.8-0.9,4.8-3.7c0-5.5-20.7-5.3-20.7-19.5c0-8.5,7.1-14.1,16.3-14.1c9.9,0,14.8,5.2,14.8,5.2l-4.8,9.2
				c0,0-4.6-4.1-10.2-4.1c-2.3,0-4.9,1-4.9,3.6c0,5.8,20.7,4.8,20.7,19.3C398.7,150.8,392.9,157.4,382.5,157.4z M427.4,157.4
				c-13.9,0-24.1-10.6-24.1-24.1c0-13.2,10.2-23.5,24.1-23.5c13.9,0,24.1,10.3,24.1,23.5C451.5,146.9,441.3,157.4,427.4,157.4z
				 M489.2,156.7h-30.1v-46.1h11.3V147h18.8V156.7z M523.2,156.7l-2.8-9.7H506l-2.8,9.7h-11.6l15.7-46.1h11.9l15.7,46.1H523.2z
				 M564.6,156.7l-8.2-15.5h-5.3v15.5h-11.3v-46.1h16c4.7,0,7,0.3,9,1.1c5.2,2,8.5,6.7,8.5,13.4c0,4.9-2.3,10.2-6.9,12.6v0.1
				c0,0,0.6,0.8,1.7,2.8l9,16.1H564.6z"/>
			<path class="st1" d="M211.3,120.3h-3.8v11.2h4.9c3.6,0,5.9-2,5.9-5.7C218.3,122.3,217,120.3,211.3,120.3z"/>
			<path class="st1" d="M513.2,121.1h-0.1c0,0-1,5-1.9,7.9l-2.6,9h9.1l-2.6-9C514.3,126.1,513.2,121.1,513.2,121.1z"/>
			<path class="st1" d="M555,120.3h-3.8v11.2h4.9c3.6,0,5.9-2,5.9-5.7C561.9,122.3,560.7,120.3,555,120.3z"/>
		</g>
	</g>
</g>
</svg>
