<svg width="400" height="220" viewBox="0 0 400 220" fill="none" xmlns="http://www.w3.org/2000/svg">
<path d="M272.391 165.694C272.391 165.212 272.391 164.68 272.294 164.198C272.149 163.328 272.439 162.894 273.405 162.797C274.419 162.701 274.805 163.039 274.95 164.053C276.205 174.145 277.557 184.236 278.861 194.376C279.392 198.577 279.875 202.778 280.551 206.979C280.841 208.911 280.551 209.78 278.378 209.973C276.399 210.118 275.626 209.731 275.481 207.607C274.998 199.35 274.322 191.141 273.694 182.933C273.26 177.187 272.825 171.44 272.391 165.694Z" fill="white"/>
<path d="M255.732 10.1166C257.132 9.68202 257.518 10.5029 257.663 11.9032C259.064 26.389 260.512 40.8749 261.913 55.3607C262.009 56.1333 262.395 57.0507 260.947 57.2439C259.547 57.4853 259.402 56.7127 259.257 55.6987C257.76 45.8001 256.215 35.8531 254.67 25.9545C254.042 21.8501 253.462 17.7458 252.786 13.6415C252.255 10.3098 252.207 10.3097 255.732 10.1166Z" fill="white"/>
<path d="M214.979 25.1819C215.606 24.3128 216.669 23.9748 217.489 23.3471C218.648 22.4296 219.324 22.5262 220.145 23.9265C227.485 36.5292 234.872 49.0353 242.212 61.5897C242.55 62.1691 243.419 62.7968 242.164 63.4728C241.198 64.004 240.618 64.1005 239.942 63.0383C231.879 50.7253 223.767 38.5089 215.655 26.1959C215.461 25.9062 215.268 25.6165 214.979 25.1819Z" fill="white"/>
<path d="M291.705 157.969C291.753 157.148 292.478 157.1 292.912 156.762C293.588 156.279 293.975 156.665 294.313 157.196C295.52 159.128 296.775 161.107 297.982 163.039C304.501 173.42 310.971 183.85 317.635 194.183C319.228 196.646 317.055 196.646 316.041 197.515C314.882 198.481 314.158 198.432 313.289 196.887C306.432 184.381 299.431 171.923 292.478 159.417C292.188 158.934 291.947 158.403 291.705 157.969Z" fill="white"/>
<path d="M293.106 13.2552C294.216 13.6415 295.52 13.8829 296.63 14.5107C297.548 15.0418 296.775 15.9592 296.534 16.6352C292.43 28.5136 288.325 40.3437 284.221 52.2221C283.69 53.719 283.207 55.2159 282.676 56.7127C282.338 57.7267 282.241 59.0788 280.503 58.451C278.861 57.8716 279.875 56.8093 280.068 55.9884C283.303 44.6895 286.539 33.3905 289.822 22.0916C290.546 19.5324 291.271 16.9732 292.043 14.4624C292.188 13.9795 292.092 13.2069 293.106 13.2552Z" fill="white"/>
<path d="M236.176 204.034C236.321 203.599 236.466 203.261 236.562 202.923C241.584 189.5 246.558 176.028 251.579 162.604C251.821 161.976 251.676 160.866 252.883 161.011C254.235 161.156 254.766 161.638 254.283 163.232C249.889 176.945 245.592 190.707 241.343 204.468C240.86 205.965 240.184 206.013 239.025 205.482C238.059 204.999 236.755 205.193 236.176 204.034Z" fill="white"/>
<path d="M225.408 77.7171C224.829 77.3791 224.394 77.1377 224.008 76.8963C212.178 69.1705 200.3 61.4447 188.469 53.7189C187.552 53.0912 187.262 52.6566 188.035 51.7392C188.518 51.208 188.904 50.5803 189.242 49.9526C189.821 48.9386 190.353 49.0352 191.222 49.6629C202.714 58.0164 214.254 66.3699 225.746 74.6751C226.181 75.0131 227.147 75.2062 226.76 76.0271C226.471 76.7031 225.891 77.186 225.408 77.7171Z" fill="white"/>
<path d="M298.562 66.1768C298.9 65.7423 299.238 65.3077 299.576 64.8731C308.219 54.3467 316.862 43.7721 325.554 33.294C326.037 32.6663 326.519 31.4108 327.389 31.8454C328.547 32.4248 329.513 33.4871 330.431 34.5011C330.865 34.984 330.093 35.3703 329.803 35.7083C320.387 46.1381 310.923 56.5679 301.507 66.9977C301.073 67.4806 300.735 68.398 299.817 67.6254C299.334 67.1909 298.61 67.046 298.562 66.1768Z" fill="white"/>
<path d="M307.736 145.028C308.219 144.449 308.557 143.917 308.992 143.483C309.571 142.903 310.054 143.483 310.488 143.773C314.4 146.428 318.311 149.084 322.222 151.788C329.851 157.003 337.48 162.314 345.158 167.433C346.703 168.447 346.655 169.219 345.641 170.378C344.772 171.392 344.385 173.082 342.309 171.44C331.348 162.99 320.242 154.685 309.233 146.283C308.75 145.945 308.316 145.511 307.736 145.028Z" fill="white"/>
<path d="M203.197 183.705C203.486 183.367 203.776 183.029 204.066 182.74C213.675 172.551 223.284 162.363 232.844 152.174C233.762 151.209 234.341 151.209 235.307 152.03C236.369 152.899 235.5 153.382 235.066 153.913C226.036 164.487 216.958 175.062 207.881 185.637C207.494 186.12 207.205 187.23 206.384 186.699C205.128 185.926 204.018 185.009 203.197 183.705Z" fill="white"/>
<path d="M320.339 124.313C326.23 125.617 332.41 126.969 338.543 128.369C345.689 129.963 352.835 131.604 359.982 133.053C361.816 133.439 361.961 134.212 361.478 135.66C361.044 136.964 361.237 138.413 358.871 137.737C345.882 134.067 332.845 130.59 319.808 127.066C318.987 126.824 317.973 126.776 318.504 125.472C318.842 124.796 318.89 123.879 320.339 124.313Z" fill="white"/>
<path d="M220.242 134.55C221.111 134.646 221.111 135.516 221.449 136.047C222.076 136.964 221.111 137.109 220.628 137.399C215.365 140.199 210.101 143 204.838 145.752C197.982 149.374 191.077 152.947 184.268 156.665C182.723 157.534 182.289 156.665 182.047 155.603C181.806 154.589 179.729 153.478 182.095 152.367C194.457 146.621 206.77 140.779 219.131 134.984C219.469 134.84 219.807 134.695 220.242 134.55Z" fill="white"/>
<path d="M313.144 82.256C313.144 81.6283 313.724 81.5317 314.11 81.2903C326.133 74.6268 338.205 67.9633 350.228 61.2516C351.339 60.6238 351.677 61.0584 352.159 61.9276C353.753 64.7765 353.801 64.7764 350.904 66.225C339.219 72.0194 327.534 77.8137 315.8 83.5598C314.496 84.2358 313.193 83.608 313.144 82.256Z" fill="white"/>
<path d="M363.796 99.6873C364.038 100.846 363.169 100.846 362.348 100.894C354.429 101.715 346.51 102.488 338.591 103.309C333.183 103.84 327.727 104.419 322.319 104.999C321.208 105.095 320.629 104.95 320.484 103.695C320.291 102.44 320.918 102.246 321.884 102.102C334.728 100.267 347.572 98.3836 360.416 96.5004C363.458 96.0658 363.845 96.4521 363.796 99.6873Z" fill="white"/>
<path d="M290.015 180.518C289.146 180.76 289.098 179.987 288.953 179.504C287.166 173.71 285.428 167.867 283.641 162.025C283.352 161.011 283.738 160.624 284.655 160.286C285.669 159.948 286.007 160.335 286.345 161.252C288.229 166.66 290.208 172.02 292.188 177.428C292.864 179.456 292.188 180.422 290.015 180.518Z" fill="white"/>
<path d="M241.101 41.4061C241.536 40.392 242.791 40.5369 243.66 40.1023C244.626 39.6195 244.674 40.4886 244.868 41.068C246.413 45.7518 247.958 50.4838 249.455 55.1676C249.793 56.2782 250.083 57.3888 250.517 58.4511C251 59.6099 250.227 59.803 249.503 60.0928C248.634 60.479 248.199 60.0928 247.91 59.3202C245.737 53.6224 243.516 47.973 241.343 42.2752C241.294 42.0821 241.246 41.8406 241.101 41.4061Z" fill="white"/>
<path d="M231.637 71.3917C230.527 71.3917 230.285 71.0054 229.996 70.7157C225.746 66.563 221.497 62.4104 217.151 58.3544C216.041 57.2921 216.765 56.8092 217.489 56.2298C218.117 55.6987 218.552 54.2984 219.807 55.6504C223.863 60.0927 227.968 64.4867 232.072 68.8808C232.362 69.2188 232.893 69.5085 232.506 70.1362C232.12 70.6674 231.782 71.2468 231.637 71.3917Z" fill="white"/>
<path d="M315.172 166.177C314.979 166.032 314.689 165.839 314.448 165.598C310.392 161.059 306.336 156.472 302.28 151.933C301.749 151.305 301.604 150.871 302.376 150.388C302.908 150.05 303.294 149.084 304.115 149.905C308.509 154.347 312.903 158.79 317.297 163.232C317.78 163.715 316.186 166.081 315.172 166.177Z" fill="white"/>
<path d="M269.011 54.2985C269.349 48.9388 269.735 43.579 270.073 38.2193C270.121 37.157 270.266 36.3844 271.666 36.7224C272.729 36.9638 273.984 36.5776 273.743 38.509C273.018 44.0619 272.439 49.6148 271.811 55.1677C271.715 56.0852 271.763 57.0992 270.17 56.906C268.576 56.7129 269.107 55.7472 269.059 54.9263C268.914 54.7331 268.962 54.4917 269.011 54.2985Z" fill="white"/>
<path d="M265.1 166.419C264.665 171.537 264.134 176.704 263.796 181.822C263.651 183.85 262.395 183.126 261.381 183.174C260.078 183.222 259.981 182.546 260.126 181.387C260.947 175.786 261.719 170.185 262.444 164.584C262.589 163.522 262.782 162.846 264.086 162.99C265.631 163.135 265.293 164.053 265.148 164.97C265.1 165.405 265.1 165.888 265.1 166.419C265.051 166.419 265.051 166.419 265.1 166.419Z" fill="white"/>
<path d="M332.265 142.903C331.783 142.71 331.493 142.614 331.251 142.469C326.23 140.151 321.256 137.882 316.235 135.516C315.607 135.226 314.544 135.129 315.22 133.922C315.703 132.957 316.09 132.474 317.345 132.957C322.415 135.081 327.582 137.109 332.7 139.137C333.328 139.379 334.052 139.572 333.618 140.441C333.135 141.358 333.038 142.372 332.265 142.903Z" fill="white"/>
<path d="M289.484 60.8652C289.677 60.479 289.87 60.0927 290.063 59.7064C292.381 55.1192 294.795 50.532 297.065 45.8965C297.693 44.5445 298.272 44.3031 299.624 45.0757C300.831 45.7517 301.073 46.2828 300.3 47.5383C297.596 52.1254 294.989 56.7609 292.381 61.3481C292.043 61.9758 291.753 62.7484 290.788 62.1207C290.257 61.7344 289.387 61.7827 289.484 60.8652Z" fill="white"/>
<path d="M243.178 157.196C244.481 157.196 245.061 158.258 244.433 159.465C241.922 164.198 239.315 168.93 236.852 173.71C236.176 175.062 235.549 174.917 234.39 174.289C233.134 173.613 232.941 173.082 233.714 171.875C236.466 167.433 239.122 162.894 241.826 158.451C242.164 157.92 242.357 157.148 243.178 157.196Z" fill="white"/>
<path d="M330.093 112.049C332.603 112.049 335.114 112.145 337.625 112C339.267 111.952 339.219 112.821 339.267 114.028C339.315 115.429 338.736 115.622 337.48 115.574C332.459 115.284 327.485 115.091 322.463 114.946C321.449 114.898 320.677 114.898 320.725 113.449C320.773 112.097 321.546 112 322.56 112.049C325.071 112.049 327.582 112.049 330.093 112.049Z" fill="white"/>
<path d="M320.097 61.4932C320.677 62.1209 321.256 62.7969 321.836 63.4729C322.367 64.1489 321.836 64.4869 321.401 64.8249C317.248 68.1084 313.096 71.3918 309.04 74.7718C308.026 75.641 307.688 74.7718 307.157 74.3373C306.577 73.8061 306.432 73.3715 307.108 72.7438C311.213 69.1707 315.269 65.5492 319.373 61.976C319.518 61.8312 319.711 61.7346 320.097 61.4932Z" fill="white"/>
<path d="M226.422 143.821C227.243 144.062 227.629 144.738 228.016 145.318C228.45 145.946 227.726 146.187 227.388 146.477C223.332 149.905 219.276 153.333 215.22 156.81C213.964 157.872 213.675 156.713 213.047 156.086C212.371 155.41 212.033 154.782 213.095 154.009C217.344 150.774 221.497 147.539 225.746 144.304C225.939 144.111 226.229 143.966 226.422 143.821Z" fill="white"/>
<path d="M317.731 91.9616C317.586 91.1408 318.166 91.0442 318.6 90.8993C323.429 89.0645 328.258 87.2779 333.038 85.3947C334.583 84.8153 334.486 86.0224 334.824 86.7467C335.211 87.5676 335.5 88.2919 334.197 88.6782C329.272 90.2233 324.395 91.8168 319.518 93.5068C317.731 94.1345 318.262 92.4928 317.731 91.9616Z" fill="white"/>
<path d="M194.698 92.4443C198.948 92.4443 201.217 94.7621 201.941 96.7901L200.444 97.4661C199.913 95.7278 197.885 94.2792 194.843 94.2792C191.173 94.2792 189.242 97.0315 189.242 99.639C189.242 102.488 191.705 103.888 194.843 104.854C199.962 106.544 202.762 108.862 202.762 113.111C202.762 117.988 199.382 120.692 194.553 120.692C189.194 120.692 186.828 117.408 186.007 114.946L187.697 114.221C188.276 116.105 190.497 118.857 194.457 118.857C197.982 118.857 200.734 117.022 200.734 113.159C200.734 109.924 198.465 108.186 193.588 106.544C189.242 105.095 187.407 102.729 187.407 99.639C187.359 95.4381 190.691 92.4443 194.698 92.4443Z" fill="white"/>
<path d="M220.869 92.4443C228.354 92.4443 234.631 98.5767 234.631 106.592C234.631 114.608 228.402 120.74 220.869 120.74C213.385 120.74 207.108 114.608 207.108 106.592C207.108 98.5767 213.385 92.4443 220.869 92.4443ZM220.869 118.809C227.388 118.809 232.506 113.352 232.506 106.592C232.506 99.8321 227.388 94.3758 220.869 94.3758C214.351 94.3758 209.232 99.8321 209.232 106.592C209.232 113.352 214.351 118.809 220.869 118.809Z" fill="white"/>
<path d="M242.164 92.9272V118.422H253.849V120.161H240.184V92.9272H242.164Z" fill="white"/>
<path d="M267.803 92.9272L278.523 120.161H276.398L272.922 111.035H260.947L257.422 120.161H255.297L266.017 92.9272H267.803ZM272.198 109.296L266.886 95.5347L261.575 109.296H272.198Z" fill="white"/>
<path d="M288.422 92.9272C293.733 92.9272 297.017 95.8244 297.017 100.508C297.017 104.854 294.216 107.944 289.436 108.282L298.514 120.161H296.003L287.118 108.427H283.738V120.161H281.758V92.9272H288.422ZM283.738 106.737H288.035C292.333 106.737 295.037 104.275 295.037 100.556C295.037 96.8384 292.333 94.569 288.035 94.569H283.738V106.737Z" fill="white"/>
<path d="M56.8031 97.1588C56.8031 97.831 56.5445 98.3997 56.0792 98.9168C55.5622 99.3821 54.9934 99.6407 54.3212 99.6407C53.4939 99.6407 52.8735 99.3304 52.3564 98.6583C51.4257 98.2963 49.6161 98.1412 46.9274 98.1412C44.7558 98.1412 43.1012 98.2446 41.9637 98.5031V102.898L55.2002 108.224C56.2343 108.637 56.7514 109.413 56.7514 110.55V117.944C56.7514 120.633 53.4422 121.926 46.8757 121.926C40.3091 121.926 37 120.581 37 117.893C37 117.22 37.2585 116.6 37.7239 116.135C38.1892 115.669 38.8097 115.411 39.4819 115.411C40.3091 115.411 40.9296 115.773 41.4466 116.445C42.3773 116.807 44.187 116.962 46.9274 116.962C49.099 116.962 50.7536 116.858 51.8394 116.6V112.153L38.5512 106.879C37.5171 106.466 37 105.69 37 104.553V97.2105C37 94.5736 40.3091 93.2292 46.8757 93.2292C53.4939 93.1775 56.8031 94.5218 56.8031 97.1588Z" fill="white"/>
<path d="M66.3685 109.982V116.6C67.506 116.858 69.1089 116.962 71.3322 116.962C74.0209 116.962 75.8306 116.807 76.7613 116.445C77.2783 115.773 77.8988 115.411 78.7261 115.411C79.3982 115.411 80.0187 115.669 80.484 116.135C81.0011 116.6 81.2079 117.22 81.2079 117.893C81.2079 120.581 77.8988 121.926 71.3322 121.926C64.7657 121.926 61.4565 120.581 61.4565 117.944V97.2105C61.4565 94.5736 64.7657 93.2292 71.3322 93.2292C77.8988 93.2292 81.2079 94.5736 81.2079 97.2105V107.552C81.2079 108.224 80.9494 108.792 80.484 109.31C79.967 109.775 79.3982 110.033 78.7261 110.033H66.3685V109.982ZM66.3685 105.07H76.2959V98.5032C75.1584 98.2447 73.5555 98.1412 71.3839 98.1412C69.1606 98.1412 67.506 98.2447 66.4202 98.5032V105.07H66.3685Z" fill="white"/>
<path d="M100.597 107.603C100.597 106.931 100.856 106.362 101.321 105.845C101.787 105.38 102.355 105.121 103.079 105.121C103.751 105.121 104.32 105.38 104.837 105.845C105.302 106.311 105.561 106.879 105.561 107.603V128.233C105.561 128.906 105.302 129.474 104.837 129.991C104.372 130.457 103.803 130.715 103.079 130.715C102.407 130.715 101.838 130.457 101.321 129.991C100.856 129.526 100.597 128.957 100.597 128.233V121.564C99.4081 121.77 97.8052 121.874 95.6853 121.874C89.1188 121.874 85.8613 120.581 85.8613 117.944V97.2621C85.8613 94.6251 89.1188 93.3325 95.6853 93.3325C102.252 93.3325 105.509 94.6769 105.509 97.3138C105.509 97.986 105.251 98.6064 104.785 99.0718C104.32 99.5371 103.751 99.7957 103.027 99.7957C102.2 99.7957 101.58 99.4854 101.063 98.8132C100.132 98.4513 98.3223 98.2962 95.6336 98.2962C93.462 98.2962 91.8074 98.3996 90.7216 98.6581V116.703C91.8591 116.962 93.462 117.065 95.6336 117.065C97.8052 117.065 99.4598 116.962 100.546 116.703V107.603H100.597Z" fill="white"/>
<path d="M110.111 86.766C110.111 86.0939 110.369 85.5251 110.835 85.008C111.3 84.5427 111.869 84.2842 112.593 84.2842C113.265 84.2842 113.834 84.5427 114.351 85.008C114.816 85.4734 115.075 86.0939 115.075 86.766V116.962H120.038C120.71 116.962 121.279 117.22 121.796 117.686C122.262 118.151 122.52 118.72 122.52 119.392C122.52 120.064 122.262 120.633 121.796 121.15C121.331 121.615 120.762 121.874 120.038 121.874H112.593C111.921 121.874 111.352 121.615 110.835 121.15C110.369 120.633 110.111 120.064 110.111 119.392V86.766Z" fill="white"/>
<path d="M127.07 95.8144C127.07 95.1422 127.329 94.5734 127.794 94.0564C128.26 93.591 128.828 93.3325 129.552 93.3325C130.224 93.3325 130.793 93.591 131.31 94.0564C131.775 94.5217 132.034 95.0905 132.034 95.8144V119.495C132.034 120.167 131.775 120.736 131.31 121.253C130.845 121.719 130.276 121.977 129.552 121.977C128.88 121.977 128.311 121.719 127.794 121.253C127.329 120.788 127.07 120.219 127.07 119.495V95.8144Z" fill="white"/>
<path d="M141.548 119.392C141.548 120.064 141.289 120.685 140.824 121.15C140.359 121.667 139.79 121.874 139.066 121.874C138.394 121.874 137.825 121.615 137.308 121.15C136.843 120.633 136.584 120.064 136.584 119.392V97.2105C136.584 94.5736 139.893 93.2292 146.46 93.2292C153.026 93.2292 156.336 94.5736 156.336 97.2105V119.392C156.336 120.064 156.077 120.685 155.612 121.15C155.146 121.667 154.526 121.874 153.854 121.874C153.182 121.874 152.613 121.615 152.147 121.15C151.682 120.633 151.424 120.064 151.424 119.392V98.5032C150.286 98.2447 148.683 98.1412 146.512 98.1412C144.288 98.1412 142.634 98.2447 141.548 98.5032V119.392Z" fill="white"/>
<path d="M165.953 109.982V116.6C167.09 116.858 168.693 116.962 170.916 116.962C173.605 116.962 175.415 116.807 176.345 116.445C176.862 115.773 177.483 115.411 178.31 115.411C178.982 115.411 179.603 115.669 180.068 116.135C180.585 116.6 180.792 117.22 180.792 117.893C180.792 120.581 177.483 121.926 170.916 121.926C164.35 121.926 161.041 120.581 161.041 117.944V97.2105C161.041 94.5736 164.35 93.2292 170.916 93.2292C177.483 93.2292 180.792 94.5736 180.792 97.2105V107.552C180.792 108.224 180.533 108.792 180.068 109.31C179.551 109.775 178.982 110.033 178.31 110.033H165.953V109.982ZM165.953 105.07H175.88V98.5032C174.742 98.2447 173.14 98.1412 170.968 98.1412C168.745 98.1412 167.09 98.2447 166.004 98.5032V105.07H165.953Z" fill="white"/>
</svg>
