<svg width="601" height="126" viewBox="0 0 601 126" fill="none" xmlns="http://www.w3.org/2000/svg">
<g clip-path="url(#clip0_820_575)">
<path d="M584.59 97.8599C582.59 97.7399 583.12 99.6799 583.11 100.86C583.11 107.81 583.17 114.75 583.04 121.69C583.04 124.11 583.88 124.82 586.2 124.79C590.82 124.72 595.44 124.91 600.06 124.99V119.99C597.42 120.11 594.77 120.16 592.14 120.37C589.51 120.58 587.89 120.26 587.93 116.78C587.93 113.5 589.15 112.71 592.02 113.08C593.02 113.21 594.02 113.08 595.02 113.08C596.42 113.08 597.13 112.63 597.13 111.08C597.13 109.53 596.72 108.88 595.13 108.95C593.97 108.95 592.79 108.83 591.64 108.95C588.91 109.3 587.91 108.36 587.93 105.45C587.95 102.54 588.69 101.58 591.56 101.83C594.43 102.08 597.2 101.93 600.03 101.95V98.9499C595.04 96.3499 589.75 98.1599 584.59 97.8599Z" fill="white"/>
<path d="M27.04 -3.05176e-05C32.94 2.99997 34.49 7.29997 31.04 11.27C30.4744 11.9923 29.7667 12.5909 28.9606 13.0289C28.1545 13.4669 27.2672 13.7349 26.3534 13.8165C25.4396 13.898 24.5189 13.7913 23.648 13.5029C22.7771 13.2146 21.9745 12.7507 21.29 12.14C20.5828 11.4975 20.0164 10.7156 19.6263 9.84347C19.2362 8.97133 19.0309 8.02786 19.0234 7.07249C19.0159 6.11711 19.2063 5.17053 19.5826 4.29236C19.9589 3.41419 20.513 2.62346 21.21 1.96997C22.0842 1.23331 23.0136 0.564686 23.99 -0.0300293L27.04 -3.05176e-05Z" fill="white"/>
<path d="M396.76 64.8199C392.99 64.8199 389.76 64.6199 386.66 64.8699C383.18 65.1499 382.66 63.4299 383.28 60.6499C383.28 60.4899 383.34 60.3299 383.37 60.1599C384.72 52.1599 384.72 52.1599 392.82 52.1599H404.82C406.97 52.1599 408.24 51.4399 408.2 48.9599C408.16 46.4799 406.73 45.8999 404.64 45.9599C402.14 45.9599 399.64 45.9599 397.14 45.9599C393.198 45.8701 389.444 44.2581 386.665 41.4618C383.885 38.6656 382.296 34.902 382.23 30.9599C382.04 23.0199 388.64 15.7499 396.64 15.3799C402.64 15.1299 408.64 15.3799 414.64 15.2899C417.35 15.2299 418.28 16.4199 417.9 18.9099C417.57 21.0399 417.05 23.1499 416.8 25.2799C416.54 27.6199 415.26 28.2799 413.08 28.2799C408.58 28.1799 404.08 28.2799 399.59 28.2199C397.17 28.2199 395.04 28.9099 395.08 31.6799C395.12 34.4499 397.51 34.1399 399.53 34.2399C403.013 34.3669 406.486 34.7008 409.93 35.2399C415.87 36.2399 421.49 43.4499 421.56 49.7899C421.63 56.1299 416.74 62.7199 410.56 64.2099C405.83 65.2699 400.97 64.6499 396.76 64.8199Z" fill="white"/>
<path d="M329.49 64.8C326.99 64.8 324.49 64.95 321.99 64.75C319.91 64.57 316.73 66.28 316.94 61.65C317.27 54.31 318.27 52.19 322.58 52.14C327.74 52.07 332.89 52.14 338.05 52.14C340.37 52.14 342.11 51.37 341.99 48.79C341.88 46.49 340.16 45.87 338.1 45.88C335.6 45.88 333.1 45.98 330.61 45.82C322.37 45.27 315.97 38.97 315.61 31.17C315.491 27.3081 316.867 23.5493 319.45 20.6767C322.034 17.804 325.627 16.0393 329.48 15.75C335.76 15.13 342.12 15.48 348.48 15.27C350.79 15.19 351.4 16.27 351.19 18.27C351.09 19.27 351.07 20.27 350.96 21.27C350.17 28.12 350.16 28.12 343.15 28.13H333.65C331.27 28.13 328.65 27.99 328.72 31.45C328.79 34.91 331.72 34.34 333.89 34.45C336.89 34.66 339.89 34.45 342.79 35C349.79 36.24 354.99 43 354.85 50.11C354.814 53.6359 353.484 57.0258 351.113 59.636C348.743 62.2463 345.496 63.8953 341.99 64.27C337.88 64.7 333.68 64.35 329.53 64.35L329.49 64.8Z" fill="white"/>
<path d="M80.6798 49.08V56.57C80.6798 64.57 77.5498 66.87 69.6098 64.8C67.0798 64.14 67.8498 62.31 67.8298 60.8C67.7598 53.48 67.8298 46.16 67.8298 38.8C67.7598 31.91 64.1198 27.95 58.1698 28.07C52.6698 28.19 49.2398 32.34 49.1698 39C49.1698 46.15 49.0398 53.31 49.2198 60.46C49.2998 63.46 48.7398 64.85 45.2198 64.81C36.2898 64.71 36.2198 64.91 36.2998 55.87C36.2998 49.22 36.1098 42.54 36.6898 35.93C37.7598 23.83 47.5598 14.93 58.8598 15.29C70.6798 15.63 79.9498 24.8 80.6298 37.02C80.8598 41.02 80.6298 45.02 80.6298 49.02L80.6798 49.08Z" fill="white"/>
<path d="M442.67 24.88C443.06 27.44 442.52 29.98 439.76 32.49C435.35 36.49 435.87 44.22 440.1 48.78C444.21 53.19 451.98 53.55 456.91 49.55C461.56 45.79 463.13 37.68 458.78 33.47C454.43 29.26 455.52 24.47 455.23 19.71C455.06 16.98 456.35 16.71 458.61 17.47C468.06 20.62 475.71 34.15 473.61 44.15C471.04 56.35 462.04 64.3 450.21 64.82C437.99 65.35 428.62 58.58 424.88 46.52C421.51 35.63 428.7 21.2 439.33 17.42C441.65 16.6 442.84 17 442.68 19.7C442.6 21.2 442.67 22.75 442.67 24.88Z" fill="white"/>
<path d="M117.37 61.61C103.25 70.05 85.0298 60.46 84.4698 44.09C84.0398 31.45 84.5299 18.78 84.3099 6.08996C84.2199 1.13997 87.9599 2.08997 90.4999 1.56997C96.8099 0.269968 97.0399 0.549969 97.0399 6.74997V7.74997C97.0399 15.04 97.0398 15.22 104.16 15.18C107.41 15.18 108.34 16.34 107.8 19.29C107.467 20.7422 107.266 22.2216 107.2 23.71C107.2 27.43 105.37 28.71 101.87 28.13C97.9399 27.43 96.5798 29.03 96.9698 32.97C97.3198 36.43 96.8699 39.97 97.1399 43.45C97.5599 48.87 101.51 52.55 106.79 51.97C109.91 51.63 111.46 52.34 112.79 55.18C113.83 57.55 115.8 59.49 117.37 61.61Z" fill="white"/>
<path d="M177.09 33C177.09 42.34 176.96 51.67 177.16 61C177.23 64.15 176.16 64.88 173.16 64.87C164.16 64.87 164.16 65 164.16 56.02C164.16 39.86 164.16 23.69 164.21 7.53001C164.21 5.88001 163.11 3.53001 165.52 2.72001C169 1.56001 172.67 0.720016 176.31 1.37002C177.62 1.61002 177.02 3.74002 177.03 5.01002C177.11 14.34 177.09 23.67 177.09 33Z" fill="white"/>
<path d="M490.04 33.14C490.04 42.29 489.92 51.45 490.11 60.59C490.18 63.77 489.4 64.92 486.01 64.9C477.12 64.9 477.11 65.03 477.11 55.96C477.11 39.81 477.11 23.67 477.11 7.52997C477.11 5.69997 476.18 3.10997 478.96 2.52997C482.33 1.82997 485.77 0.40997 489.21 1.52997C490.56 1.95997 489.98 3.90997 489.98 5.18997C490.04 14.5 490.04 23.82 490.04 33.14Z" fill="white"/>
<path d="M547.54 49.53C547.71 44.11 547.03 38.68 548.06 33.26C550.58 19.96 565.53 11.86 577.89 17.13C580.65 18.31 581.37 19.32 578.8 21.5C577.908 22.4798 577.148 23.5725 576.54 24.75C574.92 27.16 573.83 29.42 569.71 28.59C565.28 27.7 561.71 31.38 560.85 36.11C559.49 44.03 560.3 52.02 560.36 59.97C560.36 63.97 559.19 65.44 555.3 64.87C554.141 64.72 552.968 64.72 551.81 64.87C548.43 65.24 546.96 64.23 547.44 60.43C547.9 56.83 547.54 53.16 547.54 49.53Z" fill="white"/>
<path d="M234.84 47.8199C235.21 43.0699 234.16 37.3899 235.63 31.8199C236.44 28.8024 237.883 25.9916 239.862 23.5738C241.841 21.156 244.311 19.1864 247.109 17.7955C249.907 16.4046 252.969 15.6242 256.091 15.506C259.213 15.3878 262.325 15.9345 265.22 17.1099C267.55 18.1099 268.67 18.9899 266.22 21.1099C265.054 22.0652 264.115 23.2675 263.47 24.6299C262.15 27.7499 260.36 28.6299 256.76 28.3299C251.26 27.8399 247.58 32.0699 247.4 38.3299C247.18 45.6499 247.12 52.9899 247.4 60.3299C247.52 63.7699 246.65 64.9499 243.05 64.8799C234.9 64.7299 234.9 64.8799 234.9 56.6899L234.84 47.8199Z" fill="white"/>
<path d="M32.17 40C32.17 47 32.04 54 32.24 60.93C32.32 63.93 31.43 64.88 28.34 64.88C19.75 64.88 19.75 65.02 19.73 56.21C19.73 44.93 19.92 33.65 19.54 22.38C19.4 18.13 20.8 16.58 24.81 16.02C32.2 15.02 32.17 14.82 32.17 22.02V40Z" fill="white"/>
<path d="M202.76 107.83C201.17 111.53 199.7 114.65 198.5 117.83C197.86 119.54 196.86 119.98 195.15 120.02C193.44 120.06 192.85 119.08 192.32 117.81C190.93 114.5 189.53 111.19 187.58 106.56C187.1 112.39 186.69 116.74 186.4 121.1C186.25 123.24 186.14 125.22 183.14 124.7C180.14 124.18 181.57 121.93 181.67 120.39C182.05 114.39 182.5 108.45 183.11 102.5C183.29 100.79 182.11 98.3 185.2 97.7C188.51 97.05 189.45 99.07 190.35 101.64C191.79 105.64 193.5 109.64 195.4 114.35C197.4 109.35 199.26 105.11 200.81 100.73C201.6 98.52 202.68 97.53 205.12 97.64C208.06 97.78 207.55 99.98 207.69 101.58C208.29 108.2 208.69 114.84 209.17 121.47C209.27 122.88 209.78 124.57 207.35 124.72C205.11 124.86 204.51 123.72 204.35 121.72C203.86 117.37 204.39 112.83 202.76 107.83Z" fill="white"/>
<path d="M440.09 108.21C440.09 110.04 440.09 111.87 440.09 113.7C440.01 121.11 436.28 125.05 429.32 125.06C422.36 125.07 418.4 121.17 418.26 113.87C418.17 109.38 418.26 104.87 418.26 100.41C418.26 98.5199 418.89 97.7399 420.84 97.6899C422.99 97.6399 423.25 98.7799 423.23 100.48C423.18 104.97 423.23 109.48 423.23 113.95C423.23 118.21 425.23 120.65 429.49 120.56C433.49 120.48 435.38 118.16 435.25 114.05C435.1 109.57 435.3 105.05 435.19 100.59C435.14 98.4499 435.89 97.6799 438.05 97.6999C440.46 97.6999 440.15 99.2699 440.15 100.7C440.1 103.23 440.09 105.75 440.09 108.21Z" fill="white"/>
<path d="M356.1 110.96C356.235 107.961 356.215 104.957 356.04 101.96C355.66 98.29 357.2 97.34 360.55 97.66C363.2 97.91 365.89 97.66 368.55 97.75C370 97.82 372.16 96.89 372.23 99.69C372.32 102.87 369.9 101.69 368.32 101.9C367.157 102.025 365.983 102.025 364.82 101.9C362.25 101.62 361.01 102.18 360.95 105.28C360.89 108.58 362.12 109.37 365 108.99C365.999 108.94 367.001 108.94 368 108.99C369.37 108.93 370.15 109.36 370.15 110.99C370.15 112.4 369.77 113.22 368.21 113.17C367.21 113.17 366.21 113.24 365.21 113.17C362.61 112.95 360.89 113.17 360.93 116.7C360.98 119.94 362.09 120.75 365 120.47C367 120.27 369 120.47 371 120.47C372.48 120.47 373 121.22 373 122.65C373 124.08 372.51 124.85 371 124.85H358.04C356.04 124.85 356.12 123.43 356.12 122.07C356.1 118.29 356.11 114.63 356.1 110.96Z" fill="white"/>
<path d="M245.9 111.27V109.75C245.9 96.2 245.9 96.21 259.51 97.68C260.94 97.84 262.08 97.84 262.08 99.79C262.08 101.74 261.08 101.95 259.55 101.92C257.88 101.92 256.2 102.05 254.55 101.92C251.88 101.66 250.69 102.38 250.75 105.4C250.75 108.18 251.53 109.4 254.4 109.02C255.562 108.95 256.728 108.95 257.89 109.02C259.32 109.02 259.95 109.6 259.94 111.11C259.93 112.62 259.18 113.11 257.8 113.11C256.801 113.17 255.799 113.17 254.8 113.11C251.86 112.7 250.8 113.67 250.73 116.87C250.66 120.48 252.52 120.51 255.06 120.38C256.89 120.29 258.72 120.38 260.55 120.38C260.842 120.34 261.139 120.369 261.417 120.465C261.696 120.561 261.948 120.721 262.153 120.932C262.358 121.143 262.511 121.4 262.599 121.681C262.687 121.962 262.708 122.259 262.66 122.55C262.66 123.9 262.11 124.77 260.61 124.76C256.45 124.76 252.28 124.76 248.12 124.76C245.89 124.76 245.88 123.32 245.89 121.76C245.92 118.26 245.91 114.75 245.9 111.27Z" fill="white"/>
<path d="M136.42 125.05C129.92 125.05 125.07 121.83 123.01 116.26C121.988 113.615 121.781 110.724 122.415 107.96C123.05 105.196 124.496 102.685 126.57 100.75C128.769 98.8177 131.505 97.6001 134.412 97.259C137.32 96.9178 140.263 97.4692 142.85 98.84C144.21 99.58 146.16 100.01 144.99 102.43C143.82 104.85 142.49 103.63 140.99 102.97C136.86 101.16 132.79 101.07 129.55 104.63C126.71 107.75 126.4 111.5 128.11 115.33C130.34 120.33 135.61 121.93 141.16 119.33C142.66 118.63 144.16 116.63 145.63 119.33C147.19 122.33 144.25 122.61 142.84 123.47C140.921 124.663 138.673 125.216 136.42 125.05Z" fill="white"/>
<path d="M48.71 125.06C46.3132 125.038 43.9747 124.319 41.98 122.99C40.67 122.23 39.91 121.4 41.1 119.91C41.94 118.91 42.57 117.51 44.2 118.91C44.4618 119.113 44.7514 119.278 45.06 119.4C47.87 120.51 51.27 122.11 52.85 118.4C54.34 114.93 50.49 114.4 48.32 113.09C47.89 112.84 47.4 112.7 46.95 112.48C41.1 109.64 39.21 105.89 41.46 101.58C43.71 97.27 50.99 95.78 55.63 98.63C56.97 99.46 57.63 100.23 56.87 101.82C56.06 103.6 55.08 103.72 53.43 102.82C52.241 102.254 50.9464 101.944 49.63 101.91C47.86 101.79 46.25 102.33 45.85 104.36C45.49 106.12 46.59 107.18 48.02 107.87C49.66 108.68 51.36 109.34 53.02 110.13C56.9 112 59.17 114.93 57.92 119.33C56.67 123.73 53.33 125.19 48.71 125.06Z" fill="white"/>
<path d="M231.54 125.06C228.991 125.073 226.502 124.29 224.42 122.82C223.3 122.1 222.63 121.31 223.71 120.05C224.51 119.11 224.91 117.62 226.77 118.74C228.195 119.572 229.755 120.148 231.38 120.44C233.29 120.79 235.17 120.24 235.85 118.19C236.53 116.14 235.04 115.08 233.53 114.28C231.78 113.34 229.9 112.64 228.13 111.73C224.95 110.08 222.66 107.73 223.37 103.84C224.08 99.9499 226.93 97.99 230.64 97.27C233.29 96.8529 236.003 97.3427 238.34 98.66C239.68 99.34 240.48 100.09 239.55 101.77C238.8 103.1 238.19 103.97 236.55 102.97C235.695 102.464 234.751 102.124 233.77 101.97C231.52 101.62 229.15 101.72 228.45 104.35C227.86 106.57 229.84 107.45 231.52 108.24C232.87 108.87 234.25 109.44 235.6 110.09C239.39 111.93 241.93 114.67 240.67 119.16C239.48 123.42 236.22 125.15 231.54 125.06Z" fill="white"/>
<path d="M99.1099 109.28V111.75C99.1099 119.98 99.1098 119.96 107.22 120.33C108.73 120.39 110.79 119.7 110.89 122.4C111 125.5 108.67 124.68 107.03 124.73C94.1299 125.12 94.1298 125.1 94.1298 112.43C94.1298 108.6 94.1298 104.77 94.1298 100.95C94.1298 99.21 94.0198 97.7 96.5698 97.63C99.1198 97.56 99.1698 98.93 99.1298 100.77C99.0398 103.62 99.1099 106.45 99.1099 109.28Z" fill="white"/>
<path d="M470.48 110.88C470.48 107.55 470.48 104.22 470.48 100.88C470.48 99.04 470.65 97.64 473.09 97.66C475.69 97.66 475.47 99.38 475.47 101.05V113.05C475.47 120.27 475.47 120.27 482.47 120.33C483.47 120.33 484.47 120.33 485.47 120.38C486.76 120.38 487.1 121.26 487.12 122.38C487.14 123.5 487.04 124.75 485.36 124.75C481.03 124.75 476.71 124.75 472.36 124.75C470.45 124.75 470.47 123.22 470.47 121.87C470.46 118.2 470.48 114.54 470.48 110.88Z" fill="white"/>
<path d="M267.76 111.2V100.75C267.76 99.25 267.59 97.75 269.9 97.69C272.21 97.63 272.79 98.59 272.76 100.69C272.69 105.69 273.02 110.69 272.65 115.6C272.34 119.7 273.94 120.89 277.7 120.4C279.188 120.305 280.681 120.305 282.17 120.4C283.61 120.4 284.24 121.11 284.24 122.53C284.24 123.95 283.87 124.81 282.32 124.81H269.89C267.64 124.81 267.77 123.19 267.77 121.68C267.75 118.16 267.76 114.68 267.76 111.2Z" fill="white"/>
<path d="M445.77 24.9899C445.77 20.9899 445.86 16.9899 445.77 13.0499C445.7 10.6399 446.72 9.91992 449.02 9.88992C451.32 9.85992 452.26 10.5899 452.23 13.0099C452.12 20.8199 452.16 28.6299 452.23 36.4399C452.23 38.9799 451.08 39.9399 448.6 40.0399C445.76 40.1399 445.85 38.2799 445.83 36.4299C445.74 32.6199 445.76 28.7999 445.77 24.9899Z" fill="white"/>
<path d="M491.04 111.11C491.04 107.45 491.04 103.79 491.04 100.11C491.04 98.5099 491.47 97.6699 493.27 97.6899C495.07 97.7099 496.08 97.9699 496.06 100.09C495.98 107.58 496 115.09 496.06 122.55C496.06 124.36 495.13 124.75 493.56 124.75C491.99 124.75 491.04 124.38 491.07 122.57C491.1 118.75 491.04 114.93 491.04 111.11Z" fill="white"/>
<path d="M227.13 26.81C221.8 18.58 214.03 15.09 204.22 15.57C200.92 15.73 196.88 19.2 194.93 16.69C193.23 14.49 194.56 9.96996 194.45 6.47996C194.45 4.86996 195.26 2.41995 193.9 1.77995C190.41 0.149954 186.81 1.84996 183.28 2.54996C180.81 3.03996 181.51 4.84996 181.52 6.46996C181.57 11.76 181.52 17.06 181.52 22.35H181.75C181.75 28.8 181.28 35.29 181.85 41.69C183.07 55.28 191.49 63.4499 205.06 64.5399C214.93 65.3399 222.65 61.13 227.64 52.75C232.76 44.19 232.6 35.26 227.13 26.81ZM206.61 52.15C199.55 52.1 194.61 47.25 194.48 40.34C194.317 38.6854 194.5 37.0151 195.018 35.435C195.535 33.855 196.374 32.3996 197.483 31.1611C198.593 29.9227 199.947 28.9282 201.461 28.2408C202.974 27.5534 204.615 27.188 206.277 27.1678C207.939 27.1477 209.588 27.4732 211.118 28.1237C212.648 28.7742 214.026 29.7355 215.165 30.9467C216.304 32.1578 217.178 33.5924 217.734 35.1595C218.289 36.7266 218.512 38.3919 218.39 40.05C218.458 41.6301 218.203 43.2075 217.639 44.6853C217.076 46.1631 216.216 47.5101 215.112 48.6433C214.009 49.7766 212.686 50.6723 211.224 51.2753C209.761 51.8783 208.191 52.176 206.61 52.15Z" fill="white"/>
<path d="M542.97 49.9599C542.97 46.1399 543.13 42.3099 542.97 38.4899C542.28 24.4899 529.84 14.5399 516.75 15.4899C502.07 16.4899 491.52 29.9299 493.75 43.6199C496.32 59.4599 510.37 68.1399 526.28 63.7899C527.47 63.4599 528.87 61.8799 529.89 63.0499C532.89 66.5099 536.74 64.1799 540.13 64.7999C542.24 65.1899 543.13 64.0899 543.03 61.9399C542.9 57.9399 542.97 53.9499 542.97 49.9599ZM517.69 52.2199C515.341 52.1062 513.078 51.305 511.18 49.9157C509.283 48.5265 507.836 46.6104 507.019 44.4056C506.201 42.2008 506.049 39.8044 506.582 37.5141C507.115 35.2238 508.31 33.1406 510.016 31.5233C511.723 29.9059 513.868 28.8257 516.184 28.4168C518.499 28.0079 520.884 28.2883 523.042 29.2233C525.199 30.1583 527.034 31.7066 528.32 33.6758C529.605 35.6451 530.283 37.9485 530.27 40.2999C530.28 47.1399 524.79 52.3399 517.69 52.2199Z" fill="white"/>
<path d="M312.14 60.5599C311.81 56.9299 312.06 53.2399 312.06 49.5599C312.06 45.8799 312.19 42.2299 312.06 38.5599C311.47 25.1199 299.06 14.2199 285.84 15.5599C275.45 16.5599 268 21.8399 264.32 31.5599C260.64 41.2799 262.73 50.0499 269.77 57.3899C277.09 65.0199 286.22 66.0199 296.02 63.2799C296.95 63.0199 298.58 62.3499 298.68 62.5299C300.91 66.5299 304.68 64.1999 307.68 64.7699C310.94 65.3999 312.47 64.2599 312.14 60.5599ZM287.83 52.7499C284.572 52.7347 281.446 51.4644 279.102 49.2034C276.757 46.9424 275.374 43.8645 275.24 40.6099C275.05 34.1299 280.77 28.2999 287.48 28.1499C290.742 28.1035 293.889 29.3549 296.228 31.6288C298.568 33.9026 299.908 37.0128 299.955 40.2749C300.001 43.5371 298.75 46.6841 296.476 49.0236C294.202 51.3631 291.092 52.7035 287.83 52.7499Z" fill="white"/>
<path d="M159.31 45.3599C154.83 42.7099 149.55 42.8999 147.87 45.5599C144.04 51.6199 140.24 53.1399 131.98 51.0899C140.68 44.4299 148.66 38.2499 156.73 32.1799C158.73 30.6899 159.73 29.6099 158 27.0099C155.065 22.4213 150.702 18.9251 145.584 17.0603C140.466 15.1954 134.877 15.0653 129.677 16.69C124.478 18.3147 119.957 21.604 116.812 26.0511C113.666 30.4983 112.07 35.8564 112.27 41.2999C112.7 51.8799 121 62.0199 130.86 64.0299C142.91 66.4699 153.86 61.5599 158.95 51.1499C159.75 49.5199 162.66 47.3399 159.31 45.3599ZM125.65 42.0199C124.11 32.2299 132.44 25.8399 141.94 29.4699L125.65 42.0199Z" fill="white"/>
<path d="M413.2 111.15C413.346 108.645 412.743 106.152 411.47 103.99C409.655 100.965 406.771 98.7296 403.389 97.7262C400.007 96.7228 396.371 97.0239 393.2 98.57C390.001 100.107 387.505 102.802 386.217 106.11C384.929 109.417 384.946 113.09 386.263 116.386C387.581 119.681 390.101 122.354 393.314 123.862C396.527 125.37 400.193 125.602 403.57 124.51C405.57 123.89 407.57 121.68 409.75 124.43C410.68 125.6 411.43 124.33 412.12 123.71C413.02 122.9 413.23 122.01 412.18 121.24C410.28 119.85 411.13 118.46 411.96 116.93C412.893 115.153 413.322 113.154 413.2 111.15ZM404.2 114.15C403.08 113.44 400.79 115.25 402.04 117.08C405.21 121.75 400.58 120.44 399.26 120.51C394.45 120.77 390.46 116.27 390.46 111.07C390.46 105.87 394.26 101.8 399.37 101.8C404.48 101.8 408.25 105.63 408.18 111.42C407.57 112.94 409.04 117.22 404.19 114.16L404.2 114.15Z" fill="white"/>
<path d="M13.9499 97.13C10.4112 97.3322 7.0809 98.8691 4.63102 101.431C2.18114 103.992 0.794049 107.388 0.749635 110.932C0.705222 114.476 2.00679 117.905 4.39171 120.527C6.77664 123.149 10.0674 124.769 13.5999 125.06C15.514 125.218 17.44 124.98 19.2581 124.361C21.0763 123.742 22.7478 122.756 24.1685 121.464C25.5893 120.172 26.729 118.601 27.5167 116.849C28.3044 115.098 28.7234 113.203 28.7474 111.283C28.7715 109.362 28.4002 107.457 27.6566 105.687C26.913 103.916 25.813 102.317 24.4251 100.99C23.0372 99.6622 21.391 98.6345 19.5889 97.9705C17.7867 97.3065 15.8673 97.0204 13.9499 97.13ZM13.6799 120.65C8.77988 120.52 4.98989 116.25 5.05989 110.92C5.12989 105.59 8.87988 101.73 14.0599 101.82C15.2648 101.853 16.4509 102.127 17.5477 102.627C18.6445 103.127 19.6297 103.842 20.4449 104.73C21.26 105.618 21.8885 106.661 22.2931 107.796C22.6976 108.932 22.87 110.137 22.7999 111.34C22.6699 116.54 18.5099 120.75 13.6799 120.65Z" fill="white"/>
<path d="M75.3998 97.13C73.4777 96.9844 71.5462 97.2372 69.7264 97.8728C67.9066 98.5083 66.2376 99.5128 64.824 100.823C63.4105 102.134 62.2827 103.722 61.5116 105.489C60.7404 107.255 60.3423 109.162 60.3423 111.09C60.3423 113.018 60.7404 114.924 61.5116 116.691C62.2827 118.458 63.4105 120.046 64.824 121.357C66.2376 122.667 67.9066 123.672 69.7264 124.307C71.5462 124.943 73.4777 125.196 75.3998 125.05C83.2298 125.05 89.1098 119.05 89.1598 111.13C89.2041 109.3 88.8802 107.479 88.2074 105.776C87.5346 104.073 86.5266 102.523 85.2432 101.217C83.9598 99.9116 82.4272 98.877 80.7363 98.1748C79.0454 97.4727 77.2307 97.1174 75.3998 97.13ZM75.3298 120.64C70.4898 120.64 66.3898 116.37 66.3298 111.19C66.2788 109.985 66.4706 108.782 66.8937 107.652C67.3169 106.523 67.9627 105.49 68.793 104.615C69.6232 103.74 70.6208 103.041 71.7266 102.559C72.8324 102.077 74.0237 101.822 75.2298 101.81C80.4498 101.81 84.1198 105.61 84.1198 111.07C84.1198 116.53 80.2198 120.61 75.3298 120.64Z" fill="white"/>
<path d="M300.59 97.14C298.766 97.0252 296.938 97.2748 295.212 97.8743C293.485 98.4738 291.896 99.4111 290.536 100.631C289.176 101.852 288.073 103.331 287.29 104.982C286.508 106.634 286.063 108.425 285.98 110.25C285.68 118.25 291.22 124.65 298.87 125.05C300.757 125.264 302.668 125.092 304.486 124.544C306.305 123.997 307.993 123.085 309.447 121.864C310.902 120.643 312.094 119.139 312.949 117.444C313.804 115.748 314.305 113.896 314.422 112C314.539 110.105 314.269 108.205 313.628 106.417C312.988 104.63 311.99 102.991 310.696 101.601C309.402 100.211 307.839 99.0982 306.102 98.3313C304.364 97.5645 302.489 97.1591 300.59 97.14ZM299.84 120.64C294.95 120.64 291.04 116.42 291.02 111.12C291.02 105.67 294.66 101.82 299.87 101.82C301.077 101.817 302.272 102.06 303.383 102.532C304.494 103.004 305.497 103.697 306.333 104.568C307.168 105.439 307.819 106.471 308.245 107.6C308.67 108.73 308.863 109.934 308.81 111.14C308.75 116.33 304.68 120.64 299.84 120.64Z" fill="white"/>
<path d="M163.24 97.13C159.712 97.3371 156.393 98.8705 153.949 101.423C151.505 103.975 150.116 107.357 150.062 110.89C150.008 114.424 151.291 117.847 153.656 120.473C156.02 123.099 159.29 124.734 162.81 125.05C164.728 125.222 166.661 124.996 168.488 124.387C170.315 123.778 171.996 122.799 173.428 121.51C174.859 120.222 176.009 118.652 176.806 116.899C177.602 115.146 178.029 113.247 178.059 111.322C178.088 109.396 177.72 107.485 176.978 105.708C176.235 103.931 175.134 102.327 173.744 100.995C172.353 99.6629 170.702 98.6322 168.895 97.9672C167.087 97.3022 165.162 97.0172 163.24 97.13ZM163.45 120.65C158.61 120.82 154.45 116.65 154.2 111.43C154.116 110.225 154.275 109.016 154.669 107.874C155.062 106.732 155.681 105.681 156.489 104.783C157.297 103.885 158.278 103.159 159.372 102.649C160.467 102.138 161.653 101.853 162.86 101.81C168.06 101.68 171.94 105.49 172.05 110.81C172.16 116.13 168.31 120.48 163.45 120.65Z" fill="white"/>
<path d="M334.95 97.75C328.05 97.75 328.05 97.75 328.05 104.46V116.46C328.05 125.1 328.05 125.1 336.86 124.79C345.22 124.5 350.22 120.33 350.99 112.99C352.04 103.14 346.38 97.75 334.95 97.75ZM344.68 116.44C342.68 120.26 338.91 120.44 335.13 120.44C333.24 120.44 332.97 119.44 333 117.91C333.05 115.58 333 113.25 333 110.91C332.904 110.083 332.904 109.247 333 108.42C333.51 106.32 331.45 103.05 334.2 102.26C337.69 101.26 341.63 101.67 344.1 105.15C345.286 106.767 345.973 108.695 346.076 110.698C346.18 112.701 345.694 114.69 344.68 116.42V116.44Z" fill="white"/>
<path d="M522.46 101.75C519.46 98.3699 508.07 95.5199 504.3 98.0399C500.88 100.33 503.61 104.73 502.92 108.12C502.824 109.118 502.824 110.122 502.92 111.12V114.61C502.92 125.83 503.98 126.61 515.31 124.4C520.13 123.4 523.56 120.92 525.04 116.23C526.65 110.98 526.21 105.97 522.46 101.75ZM520.32 114.18C519.671 116.432 518.168 118.342 516.133 119.503C514.097 120.665 511.689 120.986 509.42 120.4C507.81 119.96 507.86 118.95 507.85 117.8C507.85 115.48 507.85 113.16 507.85 110.8V107.32C507.85 101.75 509.1 100.78 514.52 102.17C519.36 103.41 521.86 108.54 520.32 114.14V114.18Z" fill="white"/>
<path d="M561.85 97.75C555.05 97.75 555.05 97.75 555.05 104.55V116.02C555.05 125.27 555.05 125.27 564.44 124.76C572.61 124.31 577.5 119.85 578.01 112.37C578.66 102.75 573.15 97.75 561.85 97.75ZM571.49 116.75C569.49 120.06 566.22 120.37 562.77 120.44C560.55 120.44 559.84 119.62 559.97 117.53C560.1 115.44 559.97 113.2 559.97 111.04C559.858 110.043 559.858 109.037 559.97 108.04C560.44 106.04 558.46 102.81 561.48 102.13C565.28 101.28 569.3 101.86 571.54 105.8C572.548 107.45 573.078 109.348 573.069 111.282C573.06 113.216 572.513 115.109 571.49 116.75Z" fill="white"/>
<path d="M465.86 121.23C463.61 114.28 461.1 107.43 458.68 100.55C458.11 98.94 457.57 97.3 455.33 97.76C454.933 97.6502 454.519 97.6231 454.112 97.6803C453.704 97.7375 453.313 97.8779 452.962 98.0926C452.612 98.3074 452.309 98.592 452.073 98.9287C451.837 99.2654 451.672 99.6471 451.59 100.05C449.11 107.44 446.59 114.8 443.84 122.11C442.84 124.76 444.08 124.8 446.06 124.78C448.39 124.78 448.66 123.01 449.06 121.45C449.68 118.89 450.83 117.74 453.81 117.71C457.81 117.71 460.94 117.89 461.52 122.86C461.78 125.03 463.87 125.05 465.52 124.68C468.38 124.02 466.15 122.13 465.86 121.23ZM457.47 113.47C455.933 114.09 454.216 114.09 452.68 113.47C451.08 112.78 452.37 111.17 452.73 110C453.3 108.12 453.96 106.27 455.06 103C456.11 106.27 456.75 108.11 457.29 110C457.63 111.15 459.04 112.75 457.47 113.47Z" fill="white"/>
<path d="M550.91 122.58C548.13 114.85 545.41 106.69 542.19 98.7299C541.26 96.4399 537.06 97.4499 536.06 100.18C533.56 107.01 531.17 113.88 528.83 120.77C528.39 122.07 526.54 123.92 529.39 124.67C531.39 125.2 533.02 124.4 533.27 122.05C533.69 118.05 536.27 117.85 539.58 117.72C543.21 117.57 545.23 118.67 545.75 122.29C546.06 124.39 547.43 124.91 549.33 124.76C550.51 124.67 551.25 124.32 550.91 122.58ZM536.16 113.52C536.4 112.64 536.58 111.85 536.82 111.08C537.63 108.57 538.46 106.08 539.5 102.88C540.76 106.78 541.8 110.01 542.88 113.34C540.708 114.068 538.368 114.131 536.16 113.52Z" fill="white"/>
</g>
<defs>
<clipPath id="clip0_820_575">
<rect width="600.06" height="125.33" fill="white"/>
</clipPath>
</defs>
</svg>
