<svg xmlns="http://www.w3.org/2000/svg" viewBox="0 0 600.06 125.33"><defs><style>.cls-1{fill:#4d4d4f;}.cls-2{fill:#05ab57;}.cls-3{fill:#597c8d;}.cls-4{fill:#01aa55;}.cls-5{fill:#02ab55;}.cls-6{fill:#4e4e50;}.cls-7{fill:#515153;}.cls-8{fill:#555557;}.cls-9{fill:#535355;}.cls-10{fill:#f8a439;}.cls-11{fill:#4c4c4e;}</style></defs><title>Intelbras Solar</title><g id="Camada_1" data-name="Camada 1"><path class="cls-1" d="M634.55,164.11c-2-.12-1.47,1.82-1.48,3,0,6.95.06,13.89-.07,20.83,0,2.42.84,3.13,3.16,3.1,4.62-.07,9.24.12,13.86.2v-5c-2.64.12-5.29.17-7.92.38s-4.25-.11-4.21-3.59c0-3.28,1.22-4.07,4.09-3.7,1,.13,2,0,3,0,1.4,0,2.11-.45,2.11-2s-.41-2.2-2-2.13c-1.16,0-2.34-.12-3.49,0-2.73.35-3.73-.59-3.71-3.5s.76-3.87,3.63-3.62,5.64.1,8.47.12v-3C645,162.6,639.71,164.41,634.55,164.11Z" transform="translate(-49.96 -66.25)"/><path class="cls-2" d="M77,66.25c5.9,3,7.45,7.3,4,11.27a6.71,6.71,0,0,1-9.75.87,6.92,6.92,0,0,1-.08-10.17,22.39,22.39,0,0,1,2.78-2Z" transform="translate(-49.96 -66.25)"/><path class="cls-3" d="M446.72,131.07c-3.77,0-7-.2-10.1.05-3.48.28-4-1.44-3.38-4.22,0-.16.06-.32.09-.49,1.35-8,1.35-8,9.45-8h12c2.15,0,3.42-.72,3.38-3.2s-1.47-3.06-3.56-3c-2.5,0-5,0-7.5,0a15.26,15.26,0,0,1-14.91-15C432,89.27,438.6,82,446.6,81.63c6-.25,12,0,18-.09,2.71-.06,3.64,1.13,3.26,3.62-.33,2.13-.85,4.24-1.1,6.37-.26,2.34-1.54,3-3.72,3-4.5-.1-9,0-13.49-.06-2.42,0-4.55.69-4.51,3.46s2.43,2.46,4.45,2.56a87.94,87.94,0,0,1,10.4,1c5.94,1,11.56,8.21,11.63,14.55s-4.82,12.93-11,14.42C455.79,131.52,450.93,130.9,446.72,131.07Z" transform="translate(-49.96 -66.25)"/><path class="cls-4" d="M379.45,131.05c-2.5,0-5,.15-7.5-.05-2.08-.18-5.26,1.53-5.05-3.1.33-7.34,1.33-9.46,5.64-9.51,5.16-.07,10.31,0,15.47,0,2.32,0,4.06-.77,3.94-3.35-.11-2.3-1.83-2.92-3.89-2.91-2.5,0-5,.1-7.49-.06-8.24-.55-14.64-6.85-15-14.65A15,15,0,0,1,379.44,82c6.28-.62,12.64-.27,19-.48,2.31-.08,2.92,1,2.71,3-.1,1-.12,2-.23,3-.79,6.85-.8,6.85-7.81,6.86l-9.5,0c-2.38,0-5-.14-4.93,3.32s3,2.89,5.17,3c3,.21,6,0,8.9.55,7,1.24,12.2,8,12.06,15.11a14.39,14.39,0,0,1-12.86,14.16c-4.11.43-8.31.08-12.46.08Z" transform="translate(-49.96 -66.25)"/><path class="cls-4" d="M130.64,115.33v7.49c0,8-3.13,10.3-11.07,8.23-2.53-.66-1.76-2.49-1.78-4-.07-7.32,0-14.64,0-22-.07-6.89-3.71-10.85-9.66-10.73-5.5.12-8.93,4.27-9,10.93,0,7.15-.13,14.31.05,21.46.08,3-.48,4.39-4,4.35-8.93-.1-9,.1-8.92-8.94,0-6.65-.19-13.33.39-19.94,1.07-12.1,10.87-21,22.17-20.64,11.82.34,21.09,9.51,21.77,21.73.23,4,0,8,0,12Z" transform="translate(-49.96 -66.25)"/><path class="cls-3" d="M492.63,91.13c.39,2.56-.15,5.1-2.91,7.61-4.41,4-3.89,11.73.34,16.29,4.11,4.41,11.88,4.77,16.81.77,4.65-3.76,6.22-11.87,1.87-16.08s-3.26-9-3.55-13.76c-.17-2.73,1.12-3,3.38-2.24,9.45,3.15,17.1,16.68,15,26.68C521,122.6,512,130.55,500.17,131.07c-12.22.53-21.59-6.24-25.33-18.3-3.37-10.89,3.82-25.32,14.45-29.1,2.32-.82,3.51-.42,3.35,2.28C492.56,87.45,492.63,89,492.63,91.13Z" transform="translate(-49.96 -66.25)"/><path class="cls-5" d="M167.33,127.86c-14.12,8.44-32.34-1.15-32.9-17.52-.43-12.64.06-25.31-.16-38-.09-4.95,3.65-4,6.19-4.52C146.77,66.52,147,66.8,147,73v1c0,7.29,0,7.47,7.12,7.43,3.25,0,4.18,1.16,3.64,4.11a24.71,24.71,0,0,0-.6,4.42c0,3.72-1.83,5-5.33,4.42-3.93-.7-5.29.9-4.9,4.84.35,3.46-.1,7,.17,10.48.42,5.42,4.37,9.1,9.65,8.52,3.12-.34,4.67.37,6,3.21C163.79,123.8,165.76,125.74,167.33,127.86Z" transform="translate(-49.96 -66.25)"/><path class="cls-5" d="M227.05,99.25c0,9.34-.13,18.67.07,28,.07,3.15-1,3.88-4,3.87-9,0-9,.13-9-8.85,0-16.16,0-32.33.05-48.49,0-1.65-1.1-4,1.31-4.81,3.48-1.16,7.15-2,10.79-1.35,1.31.24.71,2.37.72,3.64C227.07,80.59,227.05,89.92,227.05,99.25Z" transform="translate(-49.96 -66.25)"/><path class="cls-3" d="M540,99.39c0,9.15-.12,18.31.07,27.45.07,3.18-.71,4.33-4.1,4.31-8.89,0-8.9.13-8.9-8.94,0-16.15,0-32.29,0-48.43,0-1.83-.93-4.42,1.85-5,3.37-.7,6.81-2.12,10.25-1,1.35.43.77,2.38.77,3.66C540,80.75,540,90.07,540,99.39Z" transform="translate(-49.96 -66.25)"/><path class="cls-3" d="M597.5,115.78c.17-5.42-.51-10.85.52-16.27,2.52-13.3,17.47-21.4,29.83-16.13,2.76,1.18,3.48,2.19.91,4.37A15.15,15.15,0,0,0,626.5,91c-1.62,2.41-2.71,4.67-6.83,3.84-4.43-.89-8,2.79-8.86,7.52-1.36,7.92-.55,15.91-.49,23.86,0,4-1.17,5.47-5.06,4.9a13.59,13.59,0,0,0-3.49,0c-3.38.37-4.85-.64-4.37-4.44C597.86,123.08,597.5,119.41,597.5,115.78Z" transform="translate(-49.96 -66.25)"/><path class="cls-4" d="M284.8,114.07c.37-4.75-.68-10.43.79-16a22.05,22.05,0,0,1,29.59-14.71c2.33,1,3.45,1.88,1,4a10.18,10.18,0,0,0-2.75,3.52c-1.32,3.12-3.11,4-6.71,3.7-5.5-.49-9.18,3.74-9.36,10-.22,7.32-.28,14.66,0,22,.12,3.44-.75,4.62-4.35,4.55-8.15-.15-8.15,0-8.15-8.19Z" transform="translate(-49.96 -66.25)"/><path class="cls-4" d="M82.13,106.25c0,7-.13,14,.07,20.93.08,3-.81,3.95-3.9,3.95-8.59,0-8.59.14-8.61-8.67,0-11.28.19-22.56-.19-33.83-.14-4.25,1.26-5.8,5.27-6.36,7.39-1,7.36-1.2,7.36,6Z" transform="translate(-49.96 -66.25)"/><path class="cls-1" d="M252.72,174.08c-1.59,3.7-3.06,6.82-4.26,10-.64,1.71-1.64,2.15-3.35,2.19s-2.3-.94-2.83-2.21c-1.39-3.31-2.79-6.62-4.74-11.25-.48,5.83-.89,10.18-1.18,14.54-.15,2.14-.26,4.12-3.26,3.6s-1.57-2.77-1.47-4.31c.38-6,.83-11.94,1.44-17.89.18-1.71-1-4.2,2.09-4.8,3.31-.65,4.25,1.37,5.15,3.94,1.44,4,3.15,8,5.05,12.71,2-5,3.86-9.24,5.41-13.62.79-2.21,1.87-3.2,4.31-3.09,2.94.14,2.43,2.34,2.57,3.94.6,6.62,1,13.26,1.48,19.89.1,1.41.61,3.1-1.82,3.25-2.24.14-2.84-1-3-3C253.82,183.62,254.35,179.08,252.72,174.08Z" transform="translate(-49.96 -66.25)"/><path class="cls-1" d="M490.05,174.46c0,1.83,0,3.66,0,5.49-.08,7.41-3.81,11.35-10.77,11.36s-10.92-3.89-11.06-11.19c-.09-4.49,0-9,0-13.46,0-1.89.63-2.67,2.58-2.72,2.15-.05,2.41,1.09,2.39,2.79-.05,4.49,0,9,0,13.47,0,4.26,2,6.7,6.26,6.61,4-.08,5.89-2.4,5.76-6.51-.15-4.48.05-9-.06-13.46-.05-2.14.7-2.91,2.86-2.89,2.41,0,2.1,1.57,2.1,3C490.06,169.48,490.05,172,490.05,174.46Z" transform="translate(-49.96 -66.25)"/><path class="cls-1" d="M406.06,177.21a86.93,86.93,0,0,0-.06-9c-.38-3.67,1.16-4.62,4.51-4.3,2.65.25,5.34,0,8,.09,1.45.07,3.61-.86,3.68,1.94.09,3.18-2.33,2-3.91,2.21a16.38,16.38,0,0,1-3.5,0c-2.57-.28-3.81.28-3.87,3.38-.06,3.3,1.17,4.09,4.05,3.71a30,30,0,0,1,3,0c1.37-.06,2.15.37,2.15,2,0,1.41-.38,2.23-1.94,2.18-1,0-2,.07-3,0-2.6-.22-4.32,0-4.28,3.53.05,3.24,1.16,4.05,4.07,3.77,2-.2,4,0,6,0,1.48,0,2,.75,2,2.18s-.49,2.2-2,2.2H408c-2,0-1.92-1.42-1.92-2.78C406.06,184.54,406.07,180.88,406.06,177.21Z" transform="translate(-49.96 -66.25)"/><path class="cls-6" d="M295.86,177.52V176c0-13.55,0-13.54,13.61-12.07,1.43.16,2.57.16,2.57,2.11s-1,2.16-2.53,2.13c-1.67,0-3.35.13-5,0-2.67-.26-3.86.46-3.8,3.48,0,2.78.78,4,3.65,3.62a29,29,0,0,1,3.49,0c1.43,0,2.06.58,2.05,2.09s-.76,2-2.14,2a25,25,0,0,1-3,0c-2.94-.41-4,.56-4.07,3.76-.07,3.61,1.79,3.64,4.33,3.51,1.83-.09,3.66,0,5.49,0a1.88,1.88,0,0,1,2.11,2.17c0,1.35-.55,2.22-2.05,2.21-4.16,0-8.33,0-12.49,0-2.23,0-2.24-1.44-2.23-3C295.88,184.51,295.87,181,295.86,177.52Z" transform="translate(-49.96 -66.25)"/><path class="cls-1" d="M186.38,191.3c-6.5,0-11.35-3.22-13.41-8.79A14.21,14.21,0,0,1,176.53,167a14.43,14.43,0,0,1,16.28-1.91c1.36.74,3.31,1.17,2.14,3.59s-2.5,1.2-4,.54c-4.13-1.81-8.2-1.9-11.44,1.66-2.84,3.12-3.15,6.87-1.44,10.7,2.23,5,7.5,6.6,13.05,4,1.5-.7,3-2.7,4.47,0,1.56,3-1.38,3.28-2.79,4.14A10.67,10.67,0,0,1,186.38,191.3Z" transform="translate(-49.96 -66.25)"/><path class="cls-1" d="M98.67,191.31a12.34,12.34,0,0,1-6.73-2.07c-1.31-.76-2.07-1.59-.88-3.08.84-1,1.47-2.4,3.1-1a3.48,3.48,0,0,0,.86.49c2.81,1.11,6.21,2.71,7.79-1,1.49-3.47-2.36-4-4.53-5.31-.43-.25-.92-.39-1.37-.61-5.85-2.84-7.74-6.59-5.49-10.9s9.53-5.8,14.17-2.95c1.34.83,2,1.6,1.24,3.19-.81,1.78-1.79,1.9-3.44,1a9.4,9.4,0,0,0-3.8-.91c-1.77-.12-3.38.42-3.78,2.45-.36,1.76.74,2.82,2.17,3.51,1.64.81,3.34,1.47,5,2.26,3.88,1.87,6.15,4.8,4.9,9.2S103.29,191.44,98.67,191.31Z" transform="translate(-49.96 -66.25)"/><path class="cls-1" d="M281.5,191.31a12.23,12.23,0,0,1-7.12-2.24c-1.12-.72-1.79-1.51-.71-2.77.8-.94,1.2-2.43,3.06-1.31a14.08,14.08,0,0,0,4.61,1.7c1.91.35,3.79-.2,4.47-2.25s-.81-3.11-2.32-3.91c-1.75-.94-3.63-1.64-5.4-2.55-3.18-1.65-5.47-4-4.76-7.89s3.56-5.85,7.27-6.57a11.91,11.91,0,0,1,7.7,1.39c1.34.68,2.14,1.43,1.21,3.11-.75,1.33-1.36,2.2-3,1.2a7.85,7.85,0,0,0-2.78-1c-2.25-.35-4.62-.25-5.32,2.38-.59,2.22,1.39,3.1,3.07,3.89,1.35.63,2.73,1.2,4.08,1.85,3.79,1.84,6.33,4.58,5.07,9.07C289.44,189.67,286.18,191.4,281.5,191.31Z" transform="translate(-49.96 -66.25)"/><path class="cls-7" d="M149.07,175.53V178c0,8.23,0,8.21,8.11,8.58,1.51.06,3.57-.63,3.67,2.07.11,3.1-2.22,2.28-3.86,2.33-12.9.39-12.9.37-12.9-12.3,0-3.83,0-7.66,0-11.48,0-1.74-.11-3.25,2.44-3.32s2.6,1.3,2.56,3.14C149,169.87,149.07,172.7,149.07,175.53Z" transform="translate(-49.96 -66.25)"/><path class="cls-8" d="M520.44,177.13c0-3.33,0-6.66,0-10,0-1.84.17-3.24,2.61-3.22,2.6,0,2.38,1.72,2.38,3.39v12c0,7.22,0,7.22,7,7.28,1,0,2,0,3,.05,1.29,0,1.63.88,1.65,2S537,191,535.32,191c-4.33,0-8.65,0-13,0-1.91,0-1.89-1.53-1.89-2.88C520.42,184.45,520.44,180.79,520.44,177.13Z" transform="translate(-49.96 -66.25)"/><path class="cls-9" d="M317.72,177.45V167c0-1.5-.17-3,2.14-3.06s2.89.9,2.86,3c-.07,5,.26,10-.11,14.91-.31,4.1,1.29,5.29,5.05,4.8a35.07,35.07,0,0,1,4.47,0c1.44,0,2.07.71,2.07,2.13s-.37,2.28-1.92,2.28H319.85c-2.25,0-2.12-1.62-2.12-3.13C317.71,184.41,317.72,180.93,317.72,177.45Z" transform="translate(-49.96 -66.25)"/><path class="cls-10" d="M495.73,91.24c0-4,.09-8,0-11.94-.07-2.41.95-3.13,3.25-3.16s3.24.7,3.21,3.12c-.11,7.81-.07,15.62,0,23.43,0,2.54-1.15,3.5-3.63,3.6-2.84.1-2.75-1.76-2.77-3.61C495.7,98.87,495.72,95.05,495.73,91.24Z" transform="translate(-49.96 -66.25)"/><path class="cls-1" d="M541,177.36c0-3.66,0-7.32,0-11,0-1.6.43-2.44,2.23-2.42s2.81.28,2.79,2.4c-.08,7.49-.06,15,0,22.46,0,1.81-.93,2.2-2.5,2.2s-2.52-.37-2.49-2.18C541.06,185,541,181.18,541,177.36Z" transform="translate(-49.96 -66.25)"/><path class="cls-4" d="M277.09,93.06c-5.33-8.23-13.1-11.72-22.91-11.24-3.3.16-7.34,3.63-9.29,1.12-1.7-2.2-.37-6.72-.48-10.21,0-1.61.81-4.06-.55-4.7-3.49-1.63-7.09.07-10.62.77-2.47.49-1.77,2.3-1.76,3.92.05,5.29,0,10.59,0,15.88h.23c0,6.45-.47,12.94.1,19.34,1.22,13.59,9.64,21.76,23.21,22.85,9.87.8,17.59-3.41,22.58-11.79C282.72,110.44,282.56,101.51,277.09,93.06ZM256.57,118.4c-7.06-.05-12-4.9-12.13-11.81a12,12,0,1,1,23.91-.29A11.6,11.6,0,0,1,256.57,118.4Z" transform="translate(-49.96 -66.25)"/><path class="cls-3" d="M592.93,116.21c0-3.82.16-7.65,0-11.47-.69-14-13.13-23.95-26.22-23-14.68,1-25.23,14.44-23,28.13,2.57,15.84,16.62,24.52,32.53,20.17,1.19-.33,2.59-1.91,3.61-.74,3,3.46,6.85,1.13,10.24,1.75,2.11.39,3-.71,2.9-2.86C592.86,124.19,592.93,120.2,592.93,116.21Zm-25.28,2.26a12,12,0,1,1,12.58-11.92C580.24,113.39,574.75,118.59,567.65,118.47Z" transform="translate(-49.96 -66.25)"/><path class="cls-4" d="M362.1,126.81c-.33-3.63-.08-7.32-.08-11s.13-7.33,0-11c-.59-13.44-13-24.34-26.22-23-10.39,1-17.84,6.28-21.52,16s-1.59,18.49,5.45,25.83c7.32,7.63,16.45,8.63,26.25,5.89.93-.26,2.56-.93,2.66-.75,2.23,4,6,1.67,9,2.24C360.9,131.65,362.43,130.51,362.1,126.81ZM337.79,119a12.66,12.66,0,0,1-12.59-12.14c-.19-6.48,5.53-12.31,12.24-12.46a12.3,12.3,0,0,1,.35,24.6Z" transform="translate(-49.96 -66.25)"/><path class="cls-4" d="M209.27,111.61c-4.48-2.65-9.76-2.46-11.44.2-3.83,6.06-7.63,7.58-15.89,5.53,8.7-6.66,16.68-12.84,24.75-18.91,2-1.49,3-2.57,1.27-5.17a24.83,24.83,0,0,0-45.73,14.29c.43,10.58,8.73,20.72,18.59,22.73,12.05,2.44,23-2.47,28.09-12.88C209.71,115.77,212.62,113.59,209.27,111.61Zm-33.66-3.34c-1.54-9.79,6.79-16.18,16.29-12.55Z" transform="translate(-49.96 -66.25)"/><path class="cls-11" d="M463.16,177.4a12.66,12.66,0,0,0-1.73-7.16,14.1,14.1,0,0,0-18.27-5.42,14,14,0,0,0,10.37,25.94c2-.62,4-2.83,6.18-.08.93,1.17,1.68-.1,2.37-.72.9-.81,1.11-1.7.06-2.47-1.9-1.39-1.05-2.78-.22-4.31A11,11,0,0,0,463.16,177.4Zm-9,3c-1.12-.71-3.41,1.1-2.16,2.93,3.17,4.67-1.46,3.36-2.78,3.43-4.81.26-8.8-4.24-8.8-9.44s3.8-9.27,8.91-9.27,8.88,3.83,8.81,9.62C457.53,179.19,459,183.47,454.15,180.41Z" transform="translate(-49.96 -66.25)"/><path class="cls-1" d="M63.91,163.38a14,14,0,0,0-.35,27.93,14,14,0,1,0,.35-27.93Zm-.27,23.52c-4.9-.13-8.69-4.4-8.62-9.73s3.82-9.19,9-9.1a9,9,0,0,1,8.74,9.52C72.63,182.79,68.47,187,63.64,186.9Z" transform="translate(-49.96 -66.25)"/><path class="cls-1" d="M125.36,163.38a14,14,0,1,0,0,27.92c7.83,0,13.71-6,13.76-13.92A13.67,13.67,0,0,0,125.36,163.38Zm-.07,23.51c-4.84,0-8.94-4.27-9-9.45a9,9,0,0,1,8.9-9.38c5.22,0,8.89,3.8,8.89,9.26S130.18,186.86,125.29,186.89Z" transform="translate(-49.96 -66.25)"/><path class="cls-1" d="M350.55,163.39a13.76,13.76,0,0,0-14.61,13.11c-.3,8,5.24,14.4,12.89,14.8a14,14,0,1,0,1.72-27.91Zm-.75,23.5c-4.89,0-8.8-4.22-8.82-9.52,0-5.45,3.64-9.3,8.85-9.3a8.93,8.93,0,0,1,8.94,9.32C358.71,182.58,354.64,186.89,349.8,186.89Z" transform="translate(-49.96 -66.25)"/><path class="cls-11" d="M213.2,163.38a14,14,0,0,0-.43,27.92,14,14,0,1,0,.43-27.92Zm.21,23.52c-4.84.17-9-4-9.25-9.22a9,9,0,0,1,8.66-9.62c5.2-.13,9.08,3.68,9.19,9S218.27,186.73,213.41,186.9Z" transform="translate(-49.96 -66.25)"/><path class="cls-11" d="M384.91,164c-6.9,0-6.9,0-6.9,6.71v12c0,8.64,0,8.64,8.81,8.33,8.36-.29,13.36-4.46,14.13-11.8C402,169.39,396.34,164,384.91,164Zm9.73,18.69c-2,3.82-5.77,4-9.55,4-1.89,0-2.16-1-2.13-2.53.05-2.33,0-4.66,0-7a10.88,10.88,0,0,1,0-2.49c.51-2.1-1.55-5.37,1.2-6.16,3.49-1,7.43-.59,9.9,2.89A10.27,10.27,0,0,1,394.64,182.67Z" transform="translate(-49.96 -66.25)"/><path class="cls-1" d="M572.42,168c-3-3.38-14.39-6.23-18.16-3.71-3.42,2.29-.69,6.69-1.38,10.08a15.59,15.59,0,0,0,0,3v3.49c0,11.22,1.06,12,12.39,9.79,4.82-1,8.25-3.48,9.73-8.17C576.61,177.23,576.17,172.22,572.42,168Zm-2.14,12.43a9,9,0,0,1-10.9,6.22c-1.61-.44-1.56-1.45-1.57-2.6,0-2.32,0-4.64,0-7v-3.48c0-5.57,1.25-6.54,6.67-5.15C569.32,169.66,571.82,174.79,570.28,180.39Z" transform="translate(-49.96 -66.25)"/><path class="cls-11" d="M611.81,164c-6.8,0-6.8,0-6.8,6.8v11.47c0,9.25,0,9.25,9.39,8.74,8.17-.45,13.06-4.91,13.57-12.39C628.62,169,623.11,164,611.81,164Zm9.64,19c-2,3.31-5.27,3.62-8.72,3.69-2.22,0-2.93-.82-2.8-2.91s0-4.33,0-6.49a13.45,13.45,0,0,1,0-3c.47-2-1.51-5.23,1.51-5.91,3.8-.85,7.82-.27,10.06,3.67A10.42,10.42,0,0,1,621.45,183Z" transform="translate(-49.96 -66.25)"/><path class="cls-1" d="M515.82,187.48c-2.25-6.95-4.76-13.8-7.18-20.68-.57-1.61-1.11-3.25-3.35-2.79a3,3,0,0,0-3.74,2.29c-2.48,7.39-5,14.75-7.75,22.06-1,2.65.24,2.69,2.22,2.67,2.33,0,2.6-1.77,3-3.33.62-2.56,1.77-3.71,4.75-3.74,4,0,7.13.18,7.71,5.15.26,2.17,2.35,2.19,4,1.82C518.34,190.27,516.11,188.38,515.82,187.48Zm-8.39-7.76a6.4,6.4,0,0,1-4.79,0c-1.6-.69-.31-2.3.05-3.47.57-1.88,1.23-3.73,2.33-7,1.05,3.27,1.69,5.11,2.23,7C507.59,177.4,509,179,507.43,179.72Z" transform="translate(-49.96 -66.25)"/><path class="cls-1" d="M600.87,188.83c-2.78-7.73-5.5-15.89-8.72-23.85-.93-2.29-5.13-1.28-6.13,1.45-2.5,6.83-4.89,13.7-7.23,20.59-.44,1.3-2.29,3.15.56,3.9,2,.53,3.63-.27,3.88-2.62.42-4,3-4.2,6.31-4.33,3.63-.15,5.65.95,6.17,4.57.31,2.1,1.68,2.62,3.58,2.47C600.47,190.92,601.21,190.57,600.87,188.83Zm-14.75-9.06c.24-.88.42-1.67.66-2.44.81-2.51,1.64-5,2.68-8.2,1.26,3.9,2.3,7.13,3.38,10.46A11.5,11.5,0,0,1,586.12,179.77Z" transform="translate(-49.96 -66.25)"/></g></svg>